<?xml version="1.0" encoding="utf-8" ?>
<svg baseProfile="full" height="800" version="1.1" width="1000" xmlns="http://www.w3.org/2000/svg" xmlns:ev="http://www.w3.org/2001/xml-events" xmlns:xlink="http://www.w3.org/1999/xlink"><defs /><rect fill="white" height="800" width="1000" x="0" y="0" /><text font-family="Arial" font-size="14" x="20" y="30">シシリアンディフェンス (1.e4 c5)</text><text fill="blue" font-family="Arial" font-size="12" x="20" y="50">e4 c5</text><line stroke="black" stroke-width="1" x1="30" x2="50" y1="55" y2="75" /><text font-family="Arial" font-size="14" x="60" y="70">オープンシシリアン (2.Nf3 d6 3.d4)</text><text fill="blue" font-family="Arial" font-size="12" x="60" y="90">e4 c5 Nf3 d6 d4 cxd4...</text><line stroke="black" stroke-width="1" x1="70" x2="90" y1="95" y2="115" /><text font-family="Arial" font-size="14" x="100" y="110">ナイドルフ (5...a6)</text><text fill="blue" font-family="Arial" font-size="12" x="100" y="130">e4 c5 Nf3 d6 d4 cxd4...</text><line stroke="black" stroke-width="1" x1="70" x2="90" y1="95" y2="175" /><text font-family="Arial" font-size="14" x="100" y="170">ドラゴン (5...g6)</text><text fill="blue" font-family="Arial" font-size="12" x="100" y="190">e4 c5 Nf3 d6 d4 cxd4...</text><line stroke="black" stroke-width="1" x1="70" x2="90" y1="95" y2="235" /><text font-family="Arial" font-size="14" x="100" y="230">シェベニンゲン (5...e6)</text><text fill="blue" font-family="Arial" font-size="12" x="100" y="250">e4 c5 Nf3 d6 d4 cxd4...</text><line stroke="black" stroke-width="1" x1="70" x2="90" y1="95" y2="295" /><text font-family="Arial" font-size="14" x="100" y="290">クラシカル (5...Nc6)</text><text fill="blue" font-family="Arial" font-size="12" x="100" y="310">e4 c5 Nf3 d6 d4 cxd4...</text><line stroke="black" stroke-width="1" x1="30" x2="50" y1="55" y2="135" /><text font-family="Arial" font-size="14" x="60" y="130">クローズドシシリアン (2.c3)</text><text fill="blue" font-family="Arial" font-size="12" x="60" y="150">e4 c5 c3</text><line stroke="black" stroke-width="1" x1="30" x2="50" y1="55" y2="195" /><text font-family="Arial" font-size="14" x="60" y="190">グランプリアタック (2.f4)</text><text fill="blue" font-family="Arial" font-size="12" x="60" y="210">e4 c5 f4</text><line stroke="black" stroke-width="1" x1="30" x2="50" y1="55" y2="255" /><text font-family="Arial" font-size="14" x="60" y="250">モスクワバリエーション (2.Nf3)</text><text fill="blue" font-family="Arial" font-size="12" x="60" y="270">e4 c5 Nf3 Nc6</text><line stroke="black" stroke-width="1" x1="70" x2="90" y1="275" y2="295" /><text font-family="Arial" font-size="14" x="100" y="290">ロゾリモアタック (3.Bb5)</text><text fill="blue" font-family="Arial" font-size="12" x="100" y="310">e4 c5 Nf3 Nc6 Bb5</text></svg>